<?xml version="1.0" standalone="no"?>
<!DOCTYPE svg PUBLIC "-//W3C//DTD SVG 20010904//EN"
 "http://www.w3.org/TR/2001/REC-SVG-20010904/DTD/svg10.dtd">
<svg version="1.0" xmlns="http://www.w3.org/2000/svg"
 width="1280.000000pt" height="1280.000000pt" viewBox="0 0 1280.000000 1280.000000"
 preserveAspectRatio="xMidYMid meet">
<metadata>
Created by potrace 1.14, written by Peter Selinger 2001-2017
</metadata>
<g transform="translate(0.000000,1280.000000) scale(0.100000,-0.100000)"
fill="#000000" stroke="none">
<path d="M0 6400 l0 -6400 6400 0 6400 0 0 6400 0 6400 -6400 0 -6400 0 0
-6400z m6510 2300 l0 -210 -610 0 c-413 0 -610 -3 -610 -10 0 -6 69 -183 154
-393 85 -210 256 -636 381 -947 405 -1006 456 -1134 463 -1146 4 -7 82 175
174 404 92 230 330 822 529 1317 199 495 365 914 370 930 5 17 15 39 23 50 13
18 38 19 707 16 382 -1 733 -6 781 -11 381 -43 646 -186 770 -417 99 -183 132
-500 72 -680 -61 -185 -194 -338 -381 -440 -63 -34 -74 -43 -58 -49 132 -47
199 -83 283 -153 117 -97 212 -257 252 -422 25 -107 28 -327 4 -450 -71 -375
-352 -627 -797 -715 -66 -13 -174 -17 -554 -21 l-472 -5 -5 -41 c-3 -23 -8
-69 -11 -102 -23 -224 -113 -471 -238 -654 -180 -265 -551 -505 -932 -604
-373 -98 -832 -85 -1195 33 -130 43 -356 156 -465 234 -184 133 -339 315 -426
500 -21 46 -39 89 -39 96 0 6 -3 10 -7 8 -5 -2 -41 -20 -80 -41 -160 -82 -328
-119 -548 -120 -297 0 -532 66 -730 208 -198 141 -315 372 -332 658 l-6 107
226 0 227 0 0 -57 c0 -86 25 -189 65 -269 86 -176 292 -284 540 -284 204 0
397 88 500 228 l35 47 0 1598 0 1597 -535 0 -535 0 0 210 0 210 1505 0 1505 0
0 -210z"/>
<path d="M7992 7813 l3 -528 395 0 c437 0 481 5 610 66 197 93 291 244 292
469 2 263 -116 421 -368 496 -51 15 -115 18 -497 21 l-437 4 2 -528z"/>
<path d="M7158 7063 l-198 -485 127 -162 c70 -88 159 -202 199 -253 52 -67 74
-88 78 -77 9 22 6 1453 -2 1458 -4 2 -96 -214 -204 -481z"/>
<path d="M5260 6787 c0 -372 2 -677 4 -677 5 0 87 115 245 342 l103 148 -31
77 c-16 43 -57 143 -89 223 -33 80 -96 237 -142 350 -46 113 -84 207 -86 209
-2 2 -4 -300 -4 -672z"/>
<path d="M7992 6318 l3 -603 355 -3 c392 -3 530 6 652 44 178 56 308 191 364
380 24 80 25 283 1 372 -63 234 -207 361 -452 398 -65 10 -205 14 -508 14
l-417 0 2 -602z"/>
<path d="M5477 6091 l-217 -310 0 -388 1 -388 28 -66 c157 -368 593 -580 1103
-539 266 22 449 86 627 220 148 112 254 282 305 490 29 116 47 353 42 565 l-2
120 -233 298 c-128 163 -236 297 -240 297 -3 0 -101 -233 -217 -517 l-211
-518 -172 0 -172 0 -110 270 c-60 149 -146 360 -191 470 -44 110 -90 224 -102
253 l-22 52 -217 -309z"/>
</g>
</svg>
